<svg id="Layer_1" data-name="Layer 1" xmlns="http://www.w3.org/2000/svg" viewBox="0 0 1375.31 427.44"><defs><style>.cls-1{fill:#292442;}</style></defs><rect class="cls-1" x="197.46" y="198.18" width="32.51" height="31.08"/><path class="cls-1" d="M248.3,557.05h0l-6.92,12-6.93,12-6.94-12-6.91-12h-.16V522.9a49.91,49.91,0,1,0,60.4,48.78V521.75H248.3Z" transform="translate(-50.83 -264.6)"/><path class="cls-1" d="M308.7,433.74A49.91,49.91,0,1,0,248.3,385v49.93h32.51v-35.3h0l6.91-12,6.93-12,6.94,12,6.91,12h.16Z" transform="translate(-50.83 -264.6)"/><path class="cls-1" d="M264.55,264.6c-118,0-213.72,95.69-213.72,213.72S146.52,692,264.55,692s213.72-95.69,213.72-213.72S382.59,264.6,264.55,264.6Zm46.67,257.15H308.7v49.93a77.82,77.82,0,1,1-88.29-77V462.78h-2.53c-58.2,0-94.24,48.91-94.24,94.23h-.07l-6.94,12-6.93,12-6.94-12-6.93-12h-.08c0-58.73,46.69-122.12,122.13-122.12h2.53V385a77.82,77.82,0,1,1,88.29,77v31.87h2.52c58.21,0,94.25-48.91,94.25-94.23h.07l6.94-12,6.93-12,6.94,12,6.93,12h.08C433.36,458.36,386.66,521.75,311.22,521.75Z" transform="translate(-50.83 -264.6)"/><polygon class="cls-1" points="537.63 312.27 537.63 114.8 656.41 114.8 656.41 142.79 567.01 142.79 567.01 202.02 644.86 202.02 644.86 229.73 567.01 229.73 567.01 312.27 537.63 312.27"/><polygon class="cls-1" points="752.5 312.27 752.5 114.8 781.87 114.8 781.87 284.27 880.64 284.27 880.64 312.27 752.5 312.27"/><path class="cls-1" d="M1094.92,579.07a100.89,100.89,0,0,1-87.37-49.93,100.93,100.93,0,0,1,0-101.06A103.58,103.58,0,0,1,1044.34,391a98.91,98.91,0,0,1,100.89,0,105.45,105.45,0,0,1,37.08,37.2,98.9,98.9,0,0,1,.13,100.63,102.42,102.42,0,0,1-37,36.65A99.08,99.08,0,0,1,1094.92,579.07Zm0-173.88a67.87,67.87,0,0,0-35.8,9.84,71.75,71.75,0,0,0-25.54,26.65,74.28,74.28,0,0,0-9.4,36.73,71.9,71.9,0,0,0,9.56,36.46,72.65,72.65,0,0,0,25.94,26.38,69.22,69.22,0,0,0,36.07,9.82,67.15,67.15,0,0,0,35.39-9.7,71.1,71.1,0,0,0,25.4-26.35,75.77,75.77,0,0,0-.13-73.34A72.49,72.49,0,0,0,1130.59,415,68.06,68.06,0,0,0,1094.92,405.19Z" transform="translate(-50.83 -264.6)"/><path class="cls-1" d="M1349.69,579.07a81.73,81.73,0,0,1-38.54-9.18,69.64,69.64,0,0,1-27.39-25.49c-6.61-10.84-10-23.41-10-37.37V379.4h29.09V506.2a42,42,0,0,0,6.27,22.19,46.16,46.16,0,0,0,17,16.3,47.05,47.05,0,0,0,23.53,6.11,50.07,50.07,0,0,0,24.2-5.94,45.21,45.21,0,0,0,17.17-16.19,42.51,42.51,0,0,0,6.26-22.47V379.4h28.83V507c0,14-3.41,26.54-10.12,37.36a70.35,70.35,0,0,1-27.66,25.5A82.58,82.58,0,0,1,1349.69,579.07Z" transform="translate(-50.83 -264.6)"/></svg>