<svg id="Layer_1" data-name="Layer 1" xmlns="http://www.w3.org/2000/svg" viewBox="0 0 409.25 547.55"><defs><style>.cls-1{fill:#eeeae1;}</style></defs><rect class="cls-1" x="189.06" y="189.75" width="31.13" height="29.76"/><path class="cls-1" d="M721,519.78h0l-6.62,11.46-6.64,11.51-6.64-11.51-6.62-11.46h-.16v-32.7a47.79,47.79,0,1,0,57.84,46.7V486H721Z" transform="translate(-531.94 -239.77)"/><path class="cls-1" d="M778.84,401.72A47.79,47.79,0,1,0,721,355v47.81h31.13V369h0l6.62-11.47,6.64-11.5,6.64,11.5L778.69,369h.15Z" transform="translate(-531.94 -239.77)"/><path class="cls-1" d="M736.57,239.77c-113,0-204.63,91.62-204.63,204.63S623.56,649,736.57,649,941.2,557.41,941.2,444.4,849.58,239.77,736.57,239.77ZM781.26,486h-2.42v47.8A74.51,74.51,0,1,1,694.3,460V429.52h-2.41c-55.73,0-90.24,46.83-90.24,90.22h-.07l-6.64,11.5-6.64,11.51-6.64-11.51L575,519.74H575c0-56.23,44.71-116.92,116.94-116.92h2.41V355a74.51,74.51,0,1,1,84.54,73.75v30.52h2.42c55.73,0,90.23-46.83,90.23-90.23h.07l6.64-11.5,6.64-11.5,6.64,11.5,6.64,11.5h.07C898.19,425.29,853.49,486,781.26,486Z" transform="translate(-531.94 -239.77)"/><path class="cls-1" d="M595.87,692.09V710H555.55v21.38h34.94v17.92H555.55v37H537V692.09Z" transform="translate(-531.94 -239.77)"/><path class="cls-1" d="M656.41,692.09v76.29H700.7V786.3H637.85V692.09Z" transform="translate(-531.94 -239.77)"/><path class="cls-1" d="M734.43,715.39A48.85,48.85,0,0,1,752,697.66a47,47,0,0,1,48,0,49.94,49.94,0,0,1,17.67,17.73,47,47,0,0,1,0,48A49.22,49.22,0,0,1,800,780.86a47.92,47.92,0,0,1-48.06,0,48.29,48.29,0,0,1-17.47-17.47,47.75,47.75,0,0,1,0-48Zm16.64,39a29.35,29.35,0,0,0,10.62,10.94,28.41,28.41,0,0,0,14.91,4,27,27,0,0,0,14.47-4,28.57,28.57,0,0,0,10.24-10.88,32.75,32.75,0,0,0-.13-30.53A29.31,29.31,0,0,0,790.75,713a28.66,28.66,0,0,0-29.31,0A29.26,29.26,0,0,0,751,724a31.1,31.1,0,0,0-3.84,15.36A30.12,30.12,0,0,0,751.07,754.43Z" transform="translate(-531.94 -239.77)"/><path class="cls-1" d="M878.49,760.06a20.7,20.7,0,0,0,7.17,6.66,19.09,19.09,0,0,0,9.6,2.56,20.53,20.53,0,0,0,10.11-2.56,19.89,19.89,0,0,0,7.23-6.66,15.67,15.67,0,0,0,2.63-8.58V692.09h18.3v59.78a33.55,33.55,0,0,1-5.12,18.24,35.19,35.19,0,0,1-13.89,12.67,43,43,0,0,1-38.46,0,34.9,34.9,0,0,1-13.76-12.67,33.84,33.84,0,0,1-5.06-18.24V692.09H875.8v59.39A15.42,15.42,0,0,0,878.49,760.06Z" transform="translate(-531.94 -239.77)"/></svg>