<svg id="Layer_1" data-name="Layer 1" xmlns="http://www.w3.org/2000/svg" viewBox="0 0 1375.31 427.44"><rect x="197.46" y="198.18" width="32.51" height="31.08"/><path d="M245.18,555.37h0l-6.91,12-6.94,12-6.93-12-6.92-12h-.16V521.22A49.91,49.91,0,1,0,277.69,570V520.07H245.18Z" transform="translate(-47.72 -262.92)"/><path d="M305.58,432.06a49.91,49.91,0,1,0-60.4-48.79v49.94h32.51v-35.3h0l6.91-12,6.94-12,6.93,12,6.92,12h.15Z" transform="translate(-47.72 -262.92)"/><path d="M261.44,262.92c-118,0-213.72,95.69-213.72,213.72S143.4,690.36,261.44,690.36s213.72-95.69,213.72-213.72S379.47,262.92,261.44,262.92Zm46.67,257.15h-2.53V570a77.82,77.82,0,1,1-88.29-77V461.1h-2.52c-58.21,0-94.25,48.91-94.25,94.23h-.07l-6.93,12-6.94,12-6.93-12-6.94-12h-.08c0-58.73,46.7-122.12,122.14-122.12h2.52V383.27a77.82,77.82,0,1,1,88.29,77v31.87h2.53c58.2,0,94.24-48.91,94.24-94.23h.08l6.93-12,6.94-12,6.93,12,6.94,12h.07C430.24,456.68,383.55,520.07,308.11,520.07Z" transform="translate(-47.72 -262.92)"/><polygon points="537.63 312.27 537.63 114.8 656.41 114.8 656.41 142.79 567.01 142.79 567.01 202.02 644.86 202.02 644.86 229.73 567.01 229.73 567.01 312.27 537.63 312.27"/><polygon points="752.5 312.27 752.5 114.8 781.87 114.8 781.87 284.27 880.64 284.27 880.64 312.27 752.5 312.27"/><path d="M1091.81,577.39a100.89,100.89,0,0,1-87.38-49.93,100.93,100.93,0,0,1,0-101.06,103.58,103.58,0,0,1,36.79-37,98.93,98.93,0,0,1,100.9,0,105.51,105.51,0,0,1,37.07,37.2,98.9,98.9,0,0,1,.13,100.63,102.42,102.42,0,0,1-37,36.65A99,99,0,0,1,1091.81,577.39Zm0-173.88a67.82,67.82,0,0,0-35.8,9.84A71.6,71.6,0,0,0,1030.47,440a74.28,74.28,0,0,0-9.4,36.73,71.89,71.89,0,0,0,9.55,36.46,72.65,72.65,0,0,0,25.94,26.38,69.25,69.25,0,0,0,36.08,9.82,67.24,67.24,0,0,0,35.39-9.7,71.33,71.33,0,0,0,25.4-26.35,75.8,75.8,0,0,0-.14-73.34,72.46,72.46,0,0,0-25.81-26.65A68.11,68.11,0,0,0,1091.81,403.51Z" transform="translate(-47.72 -262.92)"/><path d="M1346.57,577.39a81.73,81.73,0,0,1-38.54-9.18,69.71,69.71,0,0,1-27.39-25.49c-6.61-10.84-10-23.41-10-37.37V377.72h29.09v126.8a42,42,0,0,0,6.26,22.19,46.16,46.16,0,0,0,17,16.3,47.05,47.05,0,0,0,23.53,6.11,50.14,50.14,0,0,0,24.21-5.94A45.25,45.25,0,0,0,1387.94,527a42.43,42.43,0,0,0,6.27-22.47V377.72H1423V505.35c0,14-3.4,26.53-10.12,37.36a70.39,70.39,0,0,1-27.65,25.5A82.62,82.62,0,0,1,1346.57,577.39Z" transform="translate(-47.72 -262.92)"/></svg>