<svg id="Layer_1" data-name="Layer 1" xmlns="http://www.w3.org/2000/svg" viewBox="0 0 1274.82 342.36"><path d="M426,386.83l-6.94-12-6.93,12-6.94,12h-.07c0,45.32-36,94.23-94.25,94.23h-2.52V461.21a77.79,77.79,0,1,0-88.29-77V434.1H217.5c-75.44,0-122.13,63.4-122.13,122.13h.08l6.93,12,6.94,12,6.93-12,6.94-12h.07c0-45.32,36-94.23,94.24-94.23H220v31.86a77.79,77.79,0,1,0,88.29,77V521h2.52C386.28,521,433,457.57,433,398.84h-.08Zm-178.05-2.66A49.93,49.93,0,1,1,308.32,433V398.81h-.16l-6.91-12-6.94-12-6.93,12-6.91,12h0V434.1H247.92Zm32.51,186.72A49.93,49.93,0,1,1,220,522.11v34.15h.16l6.91,12,6.94,12,6.93-12,6.92-12h0V521h32.51Zm-32.51-77.82V462h32.51v31.07Z" transform="translate(-95.37 -306.35)"/><polygon points="437.14 268.84 437.14 71.36 555.92 71.36 555.92 99.36 466.51 99.36 466.51 158.59 544.37 158.59 544.37 186.3 466.51 186.3 466.51 268.84 437.14 268.84"/><polygon points="652 268.84 652 71.36 681.37 71.36 681.37 240.84 780.15 240.84 780.15 268.84 652 268.84"/><path d="M1039,577.39a100.89,100.89,0,0,1-87.37-49.93,100.93,100.93,0,0,1,0-101.06,103.58,103.58,0,0,1,36.79-37,98.91,98.91,0,0,1,100.89,0,105.45,105.45,0,0,1,37.08,37.2,98.9,98.9,0,0,1,.13,100.63,102.42,102.42,0,0,1-37,36.65A99.08,99.08,0,0,1,1039,577.39Zm0-173.88a67.87,67.87,0,0,0-35.8,9.84A71.75,71.75,0,0,0,977.62,440a74.28,74.28,0,0,0-9.4,36.73,71.9,71.9,0,0,0,9.56,36.46,72.65,72.65,0,0,0,25.94,26.38,69.22,69.22,0,0,0,36.07,9.82,67.24,67.24,0,0,0,35.39-9.7,71.18,71.18,0,0,0,25.4-26.35,75.77,75.77,0,0,0-.13-73.34,72.49,72.49,0,0,0-25.82-26.65A68.06,68.06,0,0,0,1039,403.51Z" transform="translate(-95.37 -306.35)"/><path d="M1293.73,577.39a81.73,81.73,0,0,1-38.54-9.18,69.64,69.64,0,0,1-27.39-25.49c-6.61-10.84-10-23.41-10-37.37V377.72h29.09v126.8a42,42,0,0,0,6.27,22.19,46.16,46.16,0,0,0,17,16.3,47.05,47.05,0,0,0,23.53,6.11,50.07,50.07,0,0,0,24.2-5.94A45.21,45.21,0,0,0,1335.1,527a42.51,42.51,0,0,0,6.26-22.47V377.72h28.83V505.35c0,14-3.41,26.53-10.12,37.36a70.35,70.35,0,0,1-27.66,25.5A82.58,82.58,0,0,1,1293.73,577.39Z" transform="translate(-95.37 -306.35)"/></svg>