<svg id="Layer_1" data-name="Layer 1" xmlns="http://www.w3.org/2000/svg" viewBox="0 0 409.25 547.55"><rect x="189.06" y="189.75" width="31.13" height="29.76"/><path d="M717.89,518.1h0l-6.62,11.46-6.64,11.5L698,529.56l-6.62-11.46h-.15V485.4A47.79,47.79,0,1,0,749,532.1V484.3H717.89Z" transform="translate(-528.83 -238.09)"/><path d="M775.72,400a47.79,47.79,0,1,0-57.83-46.72v47.81H749V367.34h0l6.62-11.47,6.64-11.5,6.64,11.5,6.62,11.47h.15Z" transform="translate(-528.83 -238.09)"/><path d="M733.45,238.09c-113,0-204.62,91.61-204.62,204.63s91.61,204.62,204.62,204.62,204.63-91.61,204.63-204.62S846.47,238.09,733.45,238.09ZM778.14,484.3h-2.42v47.8a74.51,74.51,0,1,1-84.53-73.75V427.84h-2.42c-55.73,0-90.23,46.83-90.23,90.22h-.07l-6.64,11.5-6.64,11.5-6.64-11.5-6.64-11.5h-.08c0-56.23,44.71-116.93,116.94-116.93h2.42V353.32a74.51,74.51,0,1,1,84.53,73.76V457.6h2.42c55.73,0,90.23-46.83,90.23-90.23h.08l6.64-11.5,6.64-11.5,6.64,11.5,6.64,11.5h.07C895.08,423.61,850.37,484.3,778.14,484.3Z" transform="translate(-528.83 -238.09)"/><path d="M592.75,690.41v17.92H552.44v21.38h34.94v17.92H552.44v37H533.87V690.41Z" transform="translate(-528.83 -238.09)"/><path d="M653.3,690.41V766.7h44.29v17.92H634.74V690.41Z" transform="translate(-528.83 -238.09)"/><path d="M731.31,713.71A48.88,48.88,0,0,1,748.85,696a47,47,0,0,1,48,0,49.84,49.84,0,0,1,17.66,17.73,47,47,0,0,1,0,48,49.12,49.12,0,0,1-17.66,17.47,47.94,47.94,0,0,1-48.07,0,48.29,48.29,0,0,1-17.47-17.47,47.81,47.81,0,0,1,0-48Zm16.64,39a29.45,29.45,0,0,0,10.63,10.94,28.41,28.41,0,0,0,14.91,4,26.94,26.94,0,0,0,14.46-4,28.5,28.5,0,0,0,10.24-10.88,32.75,32.75,0,0,0-.13-30.53,29.24,29.24,0,0,0-10.43-10.94,28.66,28.66,0,0,0-29.31,0,29.24,29.24,0,0,0-10.43,10.94,31.1,31.1,0,0,0-3.84,15.36A30.24,30.24,0,0,0,748,752.75Z" transform="translate(-528.83 -238.09)"/><path d="M875.38,758.38a20.76,20.76,0,0,0,7.16,6.66,19.12,19.12,0,0,0,9.6,2.56A20.59,20.59,0,0,0,902.26,765a19.89,19.89,0,0,0,7.23-6.66,15.74,15.74,0,0,0,2.62-8.58V690.41h18.31v59.78a33.55,33.55,0,0,1-5.12,18.24,35.32,35.32,0,0,1-13.89,12.67,43,43,0,0,1-38.47,0,34.9,34.9,0,0,1-13.76-12.67,33.83,33.83,0,0,1-5-18.24V690.41h18.56V749.8A15.34,15.34,0,0,0,875.38,758.38Z" transform="translate(-528.83 -238.09)"/></svg>