<?xml version="1.0" encoding="utf-8"?>
<!-- Generator: Adobe Illustrator 26.2.1, SVG Export Plug-In . SVG Version: 6.00 Build 0)  -->
<svg version="1.1" id="Layer_1" xmlns="http://www.w3.org/2000/svg" xmlns:xlink="http://www.w3.org/1999/xlink" x="0px" y="0px"
	 viewBox="0 0 200 200" style="enable-background:new 0 0 200 200;" xml:space="preserve">
<style type="text/css">
	.st0{display:none;fill:#E8A3A3;}
	.st1{display:none;fill-rule:evenodd;clip-rule:evenodd;fill:#FFFFFF;}
	.st2{fill-rule:evenodd;clip-rule:evenodd;fill:#FFFFFF;}
</style>
<rect x="0" y="0" class="st0" width="200" height="200"/>
<path class="st1" d="M22.5,54.5h156.8c6.2,0,11.2-5,11.2-11.2s-5-11.2-11.2-11.2H22.5c-6.2,0-11.2,5-11.2,11.2S16.4,54.5,22.5,54.5z
	 M179.3,144.1H22.5c-6.2,0-11.2,5-11.2,11.2s5,11.2,11.2,11.2h156.8c6.2,0,11.2-5,11.2-11.2S185.5,144.1,179.3,144.1z M179.3,88.1
	H22.5c-6.2,0-11.2,5-11.2,11.2c0,6.2,5,11.2,11.2,11.2h156.8c6.2,0,11.2-5,11.2-11.2C190.5,93.1,185.5,88.1,179.3,88.1z"/>
<g>
	<path class="st2" d="M180,57.8c0,0-20.7-7.4-50.3-7.4c-32.9,0-39.5,13.4-70.4,13.4c-25.4,0-39.2-6-39.2-6v-20c0,0,13.4,7,39.2,7
		s43.4-14.5,70.4-14.5s50.3,7.5,50.3,7.5V57.8z"/>
	<path class="st2" d="M180,109.1c0,0-20.7-7.4-50.3-7.4c-32.9,0-39.5,13.4-70.4,13.4c-25.4,0-39.2-6-39.2-6v-20c0,0,13.4,7,39.2,7
		s43.4-14.5,70.4-14.5s50.3,7.5,50.3,7.5V109.1z"/>
	<path class="st2" d="M180,160.4c0,0-20.7-7.4-50.3-7.4c-32.9,0-39.5,13.4-70.4,13.4c-25.4,0-39.2-6-39.2-6v-20c0,0,13.4,7,39.2,7
		s43.4-14.5,70.4-14.5s50.3,7.5,50.3,7.5V160.4z"/>
</g>
</svg>
