<?xml version="1.0" encoding="UTF-8" standalone="no"?>
<svg
   xmlns:dc="http://purl.org/dc/elements/1.1/"
   xmlns:cc="http://creativecommons.org/ns#"
   xmlns:rdf="http://www.w3.org/1999/02/22-rdf-syntax-ns#"
   xmlns:svg="http://www.w3.org/2000/svg"
   xmlns="http://www.w3.org/2000/svg"
   xmlns:sodipodi="http://sodipodi.sourceforge.net/DTD/sodipodi-0.dtd"
   xmlns:inkscape="http://www.inkscape.org/namespaces/inkscape"
   sodipodi:docname="wave_white.svg"
   inkscape:version="1.0 (4035a4fb49, 2020-05-01)"
   id="svg8"
   version="1.1"
   viewBox="0 0 677.33331 381"
   height="381mm"
   width="677.33331mm">
  <defs
     id="defs2" />
  <sodipodi:namedview
     inkscape:window-maximized="1"
     inkscape:window-y="-4"
     inkscape:window-x="-8"
     inkscape:window-height="1017"
     inkscape:window-width="1920"
     fit-margin-bottom="0"
     fit-margin-right="0"
     fit-margin-left="0"
     fit-margin-top="0"
     showgrid="false"
     inkscape:document-rotation="0"
     inkscape:current-layer="g1486"
     inkscape:document-units="mm"
     inkscape:cy="1464.5462"
     inkscape:cx="837.25224"
     inkscape:zoom="2"
     inkscape:pageshadow="2"
     inkscape:pageopacity="0.0"
     borderopacity="1.0"
     bordercolor="#666666"
     pagecolor="#ffffff"
     id="base"
     inkscape:snap-nodes="true" />
  <metadata
     id="metadata5">
    <rdf:RDF>
      <cc:Work
         rdf:about="">
        <dc:format>image/svg+xml</dc:format>
        <dc:type
           rdf:resource="http://purl.org/dc/dcmitype/StillImage" />
        <dc:title />
      </cc:Work>
    </rdf:RDF>
  </metadata>
  <g
     style="display:inline"
     transform="translate(228.23093,-14.83726)"
     id="layer1"
     inkscape:groupmode="layer"
     inkscape:label="Layer 1">
    <g
       id="g1486"
       inkscape:label="FLOU_aalto"
       transform="matrix(0.35277777,0,0,-0.35277777,-257.02379,396.11905)">
      <path
         sodipodi:nodetypes="cccccscccccccccccccccccccccccscccccscc"
         id="path53"
         style="display:inline;fill:#ffffff;fill-opacity:1;fill-rule:nonzero;stroke:none;stroke-width:1.77905"
         d="m 1938.201,1077.6524 c -3.8137,-4.8368 -7.8044,-9.7017 -12.4256,-14.6719 l -3.6668,-3.9403 -1.6078,-1.5715 -1.522,-1.5584 -3.9012,-3.6276 c -3.1426,-2.9223 -6.2547,-5.6607 -9.3426,-8.2533 -42.6629,-35.819 -80.3504,-41.2884 -120.0913,-47.0467 -96.453,-13.97088 -125.9657,-43.48031 -152.002,-69.51851 -26.0401,-26.03998 -55.5521,-55.55338 -69.5211,-152.00464 -6.4846,-44.75383 -12.6067,-87.02133 -62.0966,-136.50919 -49.4898,-49.49143 -91.7596,-55.61628 -136.5117,-62.09914 -96.4637,-13.98157 -125.978,-43.49253 -152.0124,-69.52894 -26.04,-26.03998 -55.5535,-55.55435 -69.5264,-152.00719 -6.2675,-43.24696 -12.2073,-84.11582 -57.1372,-131.41181 C 1039.5491,178.98206 998.68693,173.04221 955.44531,166.77639 858.98158,152.80372 829.47006,123.29366 803.43542,97.255286 783.55813,77.380658 761.06225,53.071975 745.59358,0.9117022 l 51.3463,-0.00104 C 808.29401,31.262924 823.0588,48.083152 837.82991,62.855727 c 22.68824,22.688242 44.12092,44.118513 124.58919,55.776863 46.8211,6.78512 99.8764,14.4813 158.6865,70.72249 l 0.2789,0.2762 c 56.2501,58.81917 63.9494,111.88276 70.7329,158.70735 11.6581,80.45953 33.0885,101.89465 55.7821,124.58662 22.6865,22.6863 44.119,44.11867 124.5892,55.78212 48.2868,6.99704 103.0166,14.92527 163.935,75.84336 60.9146,60.91668 68.8429,115.64806 75.8382,163.93506 11.6527,80.45583 33.0849,101.88876 55.7769,124.57877 22.6898,22.69181 44.1219,44.12235 124.5814,55.7769 45.887,6.64658 97.8944,14.17674 155.58,67.81154 l 4.7535,4.4225 1.9415,1.9858 1.6574,1.6183 4.8499,5.1782 c 4.2631,4.5848 8.2202,9.1325 11.9225,13.6452 9.4915,11.5686 17.2125,22.8994 23.5612,33.9905 -22.2668,0.054 -37.3629,0.105 -58.6852,0.1589 z" />
      <path
         sodipodi:nodetypes="cccccccccccccccccccccccccccscsscccccsc"
         id="path81"
         style="display:inline;fill:#ffffff;fill-opacity:1;fill-rule:nonzero;stroke:none;stroke-width:1.77905"
         d="m 1586.0114,1078.6115 c -15.291,0.05 -41.2237,0.102 -55.79,0.1511 -6.251,-9.5923 -13.6044,-19.3506 -22.9931,-29.4482 l -2.0066,-2.1552 -1.66,-1.7851 -1.608,-1.5688 -1.5245,-1.5584 -3.9012,-3.6302 c -46.5667,-43.29502 -86.8158,-49.12411 -129.4312,-55.29742 -96.4548,-13.9709 -125.9664,-43.48293 -152.0047,-69.52113 -26.0381,-26.03997 -55.55,-55.55338 -69.5211,-152.00464 -6.4846,-44.75381 -12.6058,-87.0231 -62.0939,-136.50919 C 1033.9877,575.79291 991.71474,569.66805 946.9627,563.18519 850.49898,549.20362 820.98745,519.69444 794.95282,493.65624 768.91284,467.61805 739.39918,438.10195 725.42651,341.64904 719.15896,298.40021 713.2183,257.53589 668.28667,210.23977 620.99949,165.31694 580.13557,159.37616 536.89568,153.11034 440.43196,139.13593 410.92204,109.62748 384.8858,83.589236 366.50958,65.214349 346.50726,44.599992 331.35268,0.44905259 l 52.32652,0.3204961 C 394.15043,23.602694 406.48019,36.387713 419.28282,49.189677 c 22.68824,22.688242 44.11905,44.120518 124.58919,55.776863 46.82098,6.78526 99.87643,14.4805 158.68653,70.71996 l 0.27887,0.2814 c 56.25026,58.81904 63.94524,111.88036 70.73036,158.70468 11.65635,80.46153 33.09022,101.89307 55.78207,124.58665 22.68811,22.68645 44.11932,44.11688 124.58919,55.78212 48.28507,6.99522 103.01677,14.92508 163.93507,75.84335 60.9166,60.9165 68.8456,115.64628 75.8407,163.93507 11.6529,80.45404 33.0852,101.88697 55.777,124.57876 22.69,22.69003 44.1192,44.12234 124.5788,55.77691 45.8872,6.64653 97.895,14.17932 155.5827,67.81416 l 4.7507,4.4198 1.9442,1.9858 1.6548,1.6184 4.8499,5.1756 c 9.6187,10.3456 17.7357,20.5049 24.6504,30.4827 7.5343,10.8722 13.5358,21.51 18.5081,31.9396 z" />
    </g>
  </g>
</svg>
