<?xml version="1.0" encoding="UTF-8" standalone="no"?>
<svg
   xmlns:dc="http://purl.org/dc/elements/1.1/"
   xmlns:cc="http://creativecommons.org/ns#"
   xmlns:rdf="http://www.w3.org/1999/02/22-rdf-syntax-ns#"
   xmlns:svg="http://www.w3.org/2000/svg"
   xmlns="http://www.w3.org/2000/svg"
   xmlns:sodipodi="http://sodipodi.sourceforge.net/DTD/sodipodi-0.dtd"
   xmlns:inkscape="http://www.inkscape.org/namespaces/inkscape"
   width="677.33331mm"
   height="381mm"
   viewBox="0 0 677.33331 381"
   version="1.1"
   id="svg8"
   inkscape:version="1.0 (4035a4fb49, 2020-05-01)"
   sodipodi:docname="wave_black.svg">
  <defs
     id="defs2">
    <clipPath
       id="clipPath851"
       clipPathUnits="userSpaceOnUse">
      <path
         id="path849"
         d="M 0,0 H 1920 V 1080 H 0 Z" />
    </clipPath>
    <clipPath
       id="clipPath947"
       clipPathUnits="userSpaceOnUse">
      <path
         id="path945"
         d="M 0,1080 H 1920 V 0 H 0 Z" />
    </clipPath>
    <clipPath
       id="clipPath955"
       clipPathUnits="userSpaceOnUse">
      <path
         id="path953"
         d="M 4082.274,-16.413 H 2124.25 v 1101.389 h 1958.024 z" />
    </clipPath>
    <clipPath
       id="clipPath995"
       clipPathUnits="userSpaceOnUse">
      <path
         id="path993"
         d="M 1938.067,-1234.985 H -19.958 v 1101.39 h 1958.025 z" />
    </clipPath>
    <clipPath
       id="clipPath1059"
       clipPathUnits="userSpaceOnUse">
      <path
         id="path1057"
         d="M 4082.274,-1234.985 H 2124.25 v 1101.39 h 1958.024 z" />
    </clipPath>
    <clipPath
       id="clipPath1496"
       clipPathUnits="userSpaceOnUse">
      <path
         id="path1494"
         d="M 0,0 H 1920 V 1080 H 0 Z" />
    </clipPath>
    <clipPath
       id="clipPath1592"
       clipPathUnits="userSpaceOnUse">
      <path
         id="path1590"
         d="M 0,1080 H 1920 V 0 H 0 Z" />
    </clipPath>
    <clipPath
       id="clipPath1600"
       clipPathUnits="userSpaceOnUse">
      <path
         id="path1598"
         d="M 4082.274,-16.413 H 2124.25 v 1101.389 h 1958.024 z" />
    </clipPath>
    <clipPath
       id="clipPath1640"
       clipPathUnits="userSpaceOnUse">
      <path
         id="path1638"
         d="M 1938.067,-1234.985 H -19.958 v 1101.39 h 1958.025 z" />
    </clipPath>
    <clipPath
       id="clipPath1704"
       clipPathUnits="userSpaceOnUse">
      <path
         id="path1702"
         d="M 4082.274,-1234.985 H 2124.25 v 1101.39 h 1958.024 z" />
    </clipPath>
  </defs>
  <sodipodi:namedview
     inkscape:snap-nodes="true"
     id="base"
     pagecolor="#ffffff"
     bordercolor="#666666"
     borderopacity="1.0"
     inkscape:pageopacity="0.0"
     inkscape:pageshadow="2"
     inkscape:zoom="0.49497474"
     inkscape:cx="1106.3877"
     inkscape:cy="780.53082"
     inkscape:document-units="mm"
     inkscape:current-layer="g1486"
     inkscape:document-rotation="0"
     showgrid="false"
     fit-margin-top="0"
     fit-margin-left="0"
     fit-margin-right="0"
     fit-margin-bottom="0"
     inkscape:window-width="1920"
     inkscape:window-height="1137"
     inkscape:window-x="1912"
     inkscape:window-y="-8"
     inkscape:window-maximized="1" />
  <metadata
     id="metadata5">
    <rdf:RDF>
      <cc:Work
         rdf:about="">
        <dc:format>image/svg+xml</dc:format>
        <dc:type
           rdf:resource="http://purl.org/dc/dcmitype/StillImage" />
        <dc:title />
      </cc:Work>
    </rdf:RDF>
  </metadata>
  <g
     inkscape:label="Layer 1"
     inkscape:groupmode="layer"
     id="layer1"
     transform="translate(228.23093,-14.83726)"
     style="display:inline">
    <g
       transform="matrix(0.35277777,0,0,-0.35277777,-257.02379,396.11905)"
       inkscape:label="FLOU_aalto"
       id="g1486">
      <g
         style="fill:#ffffff;fill-opacity:1"
         transform="matrix(1.7790513,0,0,1.7790513,-1555.6767,-215.01593)"
         id="g88">
        <path
           id="path53"
           style="display:inline;fill:#ffffff;fill-opacity:1;fill-rule:nonzero;stroke:none;stroke-width:1.33333"
           d="m 2509.709,472.25781 c -2.8582,3.62505 -5.8491,7.2711 -9.3125,10.9961 l -2.7481,2.95312 -1.205,1.17774 -1.1407,1.16796 -2.9238,2.71875 c -2.3553,2.19016 -4.6877,4.24253 -7.0019,6.18555 -31.9743,26.84502 -60.2197,30.94413 -90.004,35.25977 -72.288,10.47066 -94.4067,32.58689 -113.9199,52.10156 -19.5161,19.516 -41.6343,41.63521 -52.1035,113.92187 -4.86,33.54134 -9.4483,65.21927 -46.5391,102.3086 -37.0908,37.092 -68.7705,41.68235 -102.3105,46.54101 -72.296,10.47867 -94.4159,32.59605 -113.9277,52.10938 -19.516,19.516 -41.6353,41.63593 -52.1075,113.92378 -4.6972,32.412 -9.1489,63.0417 -42.8222,98.4883 -35.44,33.6668 -66.0647,38.1185 -98.4727,42.8145 -72.296,10.472 -94.4138,32.5887 -113.9258,52.1035 -14.8973,14.8953 -31.2603,31.5523 -42.8535,70.6445 l 38.4024,-0.2363 c 8.5095,-22.7479 19.1581,-33.5555 30.2285,-44.627 17.004,-17.004 33.067,-33.0652 93.375,-41.8027 35.0907,-5.0852 74.8537,-10.8532 118.9297,-53.0039 l 0.209,-0.207 c 42.1574,-44.0828 47.9277,-83.852 53.0117,-118.9453 8.7373,-60.30145 24.7986,-76.36628 41.8066,-93.37308 17.0027,-17.00254 33.0656,-33.06531 93.375,-41.80664 36.1892,-5.24402 77.2072,-11.18594 122.8633,-56.8418 45.6532,-45.6548 51.5952,-86.67395 56.8379,-122.86328 8.7333,-60.29867 24.7959,-76.36186 41.8027,-93.36719 17.0052,-17.00667 33.0678,-33.06807 93.3692,-41.80273 34.3906,-4.98136 73.3682,-10.62494 116.6015,-50.82227 l 3.5625,-3.31445 1.4551,-1.48828 1.2422,-1.2129 3.6348,-3.88086 c 3.195,-3.43616 6.1607,-6.84447 8.9355,-10.22656 7.1135,-8.67028 12.9001,-17.16225 17.6582,-25.47461 -16.6881,-0.0406 -28.0021,-0.0787 -43.9824,-0.11914 z"
           transform="matrix(0.75000002,0,0,-0.75000002,81.617558,1080.7988)" />
        <path
           id="path81"
           style="display:inline;fill:#ffffff;fill-opacity:1;fill-rule:nonzero;stroke:none;stroke-width:1.33333"
           d="m 2245.7559,471.53906 c -11.46,-0.0371 -30.8956,-0.0765 -41.8125,-0.11328 -4.6849,7.18906 -10.196,14.50256 -17.2325,22.07031 l -1.5039,1.61524 -1.2441,1.33789 -1.2051,1.17578 -1.1426,1.16797 -2.9238,2.7207 c -34.9,32.448 -65.0652,36.81669 -97.0039,41.44336 -72.2893,10.47067 -94.4072,32.58885 -113.9219,52.10352 -19.5146,19.516 -41.6327,41.63521 -52.1035,113.92187 -4.86,33.54133 -9.4476,65.2206 -46.5371,102.3086 -37.0905,37.09199 -68.7725,41.68234 -102.3125,46.54101 -72.296,10.47867 -94.4138,32.59471 -113.9258,52.10938 -19.516,19.51466 -41.6354,41.63589 -52.1074,113.92379 -4.6973,32.4134 -9.1496,63.0397 -42.8242,98.4864 -35.44,33.668 -66.066,38.1204 -98.4727,42.8164 -72.296,10.4733 -94.4126,32.5888 -113.9258,52.1035 -13.7723,13.7713 -28.7633,29.221 -40.1211,62.3105 l 39.2168,-0.2402 c 7.8478,-17.1126 17.0885,-26.6945 26.6836,-36.2891 17.004,-17.004 33.0656,-33.0667 93.375,-41.8027 35.0906,-5.0853 74.8537,-10.8526 118.9297,-53.002 l 0.209,-0.2109 c 42.1575,-44.0827 47.9246,-83.8502 53.0098,-118.9433 8.736,-60.30295 24.7999,-76.3651 41.8066,-93.3731 17.0039,-17.00266 33.0658,-33.06397 93.375,-41.80664 36.1879,-5.24266 77.2073,-11.1858 122.8633,-56.84179 45.6547,-45.65467 51.5972,-86.67262 56.8398,-122.86329 8.7334,-60.29733 24.7961,-76.36052 41.8028,-93.36718 17.0053,-17.00534 33.0657,-33.06807 93.3672,-41.80274 34.3908,-4.98133 73.3687,-10.62688 116.6035,-50.82422 l 3.5605,-3.3125 1.4571,-1.48828 1.2402,-1.21289 3.6348,-3.8789 c 7.2089,-7.75366 13.2923,-15.36768 18.4746,-22.84571 5.6467,-8.1483 10.1446,-16.12094 13.8711,-23.9375 z"
           transform="matrix(0.75000002,0,0,-0.75000002,81.617558,1080.7988)" />
      </g>
    </g>
  </g>
</svg>
