<?xml version="1.0" encoding="UTF-8"?><svg id="a" xmlns="http://www.w3.org/2000/svg" viewBox="0 0 111.4 800"><defs><style>.b{fill:#292442;}</style></defs><path class="b" d="M68.8,105.57C87.18,79.68,107.92,50.46,111.4,0h-33.17c-2.74,40.74-18.91,63.53-36,87.59C2.11,144.11,1.98,172.73,1.86,197.99c-.11,25.25-.24,53.88,39.4,104.45,18.39,23.47,35.77,45.63,35.55,93.63-.22,48-17.8,72.77-36.42,98.99C.26,551.58,.13,580.2,.01,605.45c-.12,25.25-.24,53.88,39.4,104.45,17.77,22.68,34.56,44.12,35.5,88.76-.01,.45-.04,.89-.06,1.34h33.19c.05-1.22,.11-2.44,.14-3.68v-.27c-.99-55.71-22.79-83.53-42.04-108.09-33.07-42.19-32.97-62.98-32.88-84.99,.1-22,.2-42.79,33.67-89.94,20.09-28.29,42.86-60.36,43.13-119.44,.27-59.08-22.23-87.78-42.07-113.1-33.07-42.19-32.97-62.97-32.87-84.98,.1-22.01,.19-42.79,33.67-89.93Z"/></svg>